<mxfile host="app.diagrams.net" modified="2020-09-15T10:27:32.842Z" agent="5.0 (Windows NT 10.0; Win64; x64) AppleWebKit/537.36 (KHTML, like Gecko) Chrome/85.0.4183.102 Safari/537.36" etag="eh_skGeR89dLQxTcxLnY" version="13.6.9" type="github">
  <diagram id="C5RBs43oDa-KdzZeNtuy" name="Page-1">
    <mxGraphModel dx="1049" dy="757" grid="1" gridSize="10" guides="1" tooltips="1" connect="1" arrows="1" fold="1" page="1" pageScale="1" pageWidth="827" pageHeight="1169" math="0" shadow="0">
      <root>
        <mxCell id="WIyWlLk6GJQsqaUBKTNV-0" />
        <mxCell id="WIyWlLk6GJQsqaUBKTNV-1" parent="WIyWlLk6GJQsqaUBKTNV-0" />
        <mxCell id="Cf76I0SgRMBPhJXekZDS-31" style="edgeStyle=orthogonalEdgeStyle;rounded=0;orthogonalLoop=1;jettySize=auto;html=1;exitX=0.5;exitY=1;exitDx=0;exitDy=0;entryX=0.5;entryY=0;entryDx=0;entryDy=0;" parent="WIyWlLk6GJQsqaUBKTNV-1" source="WIyWlLk6GJQsqaUBKTNV-3" target="Cf76I0SgRMBPhJXekZDS-1" edge="1">
          <mxGeometry relative="1" as="geometry">
            <Array as="points">
              <mxPoint x="530" y="100" />
              <mxPoint x="530" y="100" />
            </Array>
          </mxGeometry>
        </mxCell>
        <mxCell id="WIyWlLk6GJQsqaUBKTNV-3" value="Начало" style="rounded=1;whiteSpace=wrap;html=1;fontSize=12;glass=0;strokeWidth=1;shadow=0;" parent="WIyWlLk6GJQsqaUBKTNV-1" vertex="1">
          <mxGeometry x="475" y="60" width="110" height="40" as="geometry" />
        </mxCell>
        <mxCell id="WIyWlLk6GJQsqaUBKTNV-11" value="Конец" style="rounded=1;whiteSpace=wrap;html=1;fontSize=12;glass=0;strokeWidth=1;shadow=0;" parent="WIyWlLk6GJQsqaUBKTNV-1" vertex="1">
          <mxGeometry x="470" y="670" width="120" height="40" as="geometry" />
        </mxCell>
        <mxCell id="Cf76I0SgRMBPhJXekZDS-0" value="Визуализация алгоритма выбора скорости транспорта в зависимсти от времени начала поездки" style="text;html=1;strokeColor=#9673a6;fillColor=#e1d5e7;align=center;verticalAlign=middle;whiteSpace=wrap;rounded=0;fontStyle=1" parent="WIyWlLk6GJQsqaUBKTNV-1" vertex="1">
          <mxGeometry x="70" y="20" width="680" height="20" as="geometry" />
        </mxCell>
        <mxCell id="Cf76I0SgRMBPhJXekZDS-11" value="да" style="edgeStyle=orthogonalEdgeStyle;rounded=0;orthogonalLoop=1;jettySize=auto;html=1;" parent="WIyWlLk6GJQsqaUBKTNV-1" source="Cf76I0SgRMBPhJXekZDS-1" edge="1">
          <mxGeometry relative="1" as="geometry">
            <mxPoint x="340" y="165" as="targetPoint" />
          </mxGeometry>
        </mxCell>
        <mxCell id="Cf76I0SgRMBPhJXekZDS-22" value="нет" style="edgeStyle=orthogonalEdgeStyle;rounded=0;orthogonalLoop=1;jettySize=auto;html=1;exitX=0.5;exitY=1;exitDx=0;exitDy=0;entryX=0.5;entryY=0;entryDx=0;entryDy=0;" parent="WIyWlLk6GJQsqaUBKTNV-1" source="Cf76I0SgRMBPhJXekZDS-1" target="Cf76I0SgRMBPhJXekZDS-6" edge="1">
          <mxGeometry relative="1" as="geometry" />
        </mxCell>
        <mxCell id="Cf76I0SgRMBPhJXekZDS-1" value="Время начала поездки в диапазоне 00:01-08:00?" style="rhombus;whiteSpace=wrap;html=1;" parent="WIyWlLk6GJQsqaUBKTNV-1" vertex="1">
          <mxGeometry x="440" y="120" width="180" height="90" as="geometry" />
        </mxCell>
        <mxCell id="Cf76I0SgRMBPhJXekZDS-23" value="нет" style="edgeStyle=orthogonalEdgeStyle;rounded=0;orthogonalLoop=1;jettySize=auto;html=1;exitX=0.5;exitY=1;exitDx=0;exitDy=0;entryX=0.5;entryY=0;entryDx=0;entryDy=0;" parent="WIyWlLk6GJQsqaUBKTNV-1" source="Cf76I0SgRMBPhJXekZDS-6" target="Cf76I0SgRMBPhJXekZDS-10" edge="1">
          <mxGeometry relative="1" as="geometry" />
        </mxCell>
        <mxCell id="Cf76I0SgRMBPhJXekZDS-6" value="Время начала поездки в диапазоне 08:01-12:00?" style="rhombus;whiteSpace=wrap;html=1;" parent="WIyWlLk6GJQsqaUBKTNV-1" vertex="1">
          <mxGeometry x="440" y="230" width="180" height="90" as="geometry" />
        </mxCell>
        <mxCell id="EdyNIZO8l030MLM8-v9R-0" value="нет" style="edgeStyle=orthogonalEdgeStyle;rounded=0;orthogonalLoop=1;jettySize=auto;html=1;exitX=0.5;exitY=1;exitDx=0;exitDy=0;entryX=0.5;entryY=0;entryDx=0;entryDy=0;" edge="1" parent="WIyWlLk6GJQsqaUBKTNV-1" source="Cf76I0SgRMBPhJXekZDS-8" target="WIyWlLk6GJQsqaUBKTNV-11">
          <mxGeometry relative="1" as="geometry" />
        </mxCell>
        <mxCell id="Cf76I0SgRMBPhJXekZDS-8" value="Время начала поездки в диапазоне 22:01-00:00?" style="rhombus;whiteSpace=wrap;html=1;" parent="WIyWlLk6GJQsqaUBKTNV-1" vertex="1">
          <mxGeometry x="440" y="560" width="180" height="90" as="geometry" />
        </mxCell>
        <mxCell id="Cf76I0SgRMBPhJXekZDS-25" value="нет" style="edgeStyle=orthogonalEdgeStyle;rounded=0;orthogonalLoop=1;jettySize=auto;html=1;exitX=0.5;exitY=1;exitDx=0;exitDy=0;entryX=0.5;entryY=0;entryDx=0;entryDy=0;" parent="WIyWlLk6GJQsqaUBKTNV-1" source="Cf76I0SgRMBPhJXekZDS-9" target="Cf76I0SgRMBPhJXekZDS-8" edge="1">
          <mxGeometry relative="1" as="geometry" />
        </mxCell>
        <mxCell id="Cf76I0SgRMBPhJXekZDS-9" value="Время начала поездки в диапазоне 18:01-22:00?" style="rhombus;whiteSpace=wrap;html=1;" parent="WIyWlLk6GJQsqaUBKTNV-1" vertex="1">
          <mxGeometry x="440" y="450" width="180" height="90" as="geometry" />
        </mxCell>
        <mxCell id="Cf76I0SgRMBPhJXekZDS-24" value="нет" style="edgeStyle=orthogonalEdgeStyle;rounded=0;orthogonalLoop=1;jettySize=auto;html=1;exitX=0.5;exitY=1;exitDx=0;exitDy=0;entryX=0.5;entryY=0;entryDx=0;entryDy=0;" parent="WIyWlLk6GJQsqaUBKTNV-1" source="Cf76I0SgRMBPhJXekZDS-10" target="Cf76I0SgRMBPhJXekZDS-9" edge="1">
          <mxGeometry relative="1" as="geometry" />
        </mxCell>
        <mxCell id="Cf76I0SgRMBPhJXekZDS-10" value="Время начала поездки в диапазоне 12:01-18:00?" style="rhombus;whiteSpace=wrap;html=1;" parent="WIyWlLk6GJQsqaUBKTNV-1" vertex="1">
          <mxGeometry x="440" y="340" width="180" height="90" as="geometry" />
        </mxCell>
        <mxCell id="Cf76I0SgRMBPhJXekZDS-26" style="edgeStyle=orthogonalEdgeStyle;rounded=0;orthogonalLoop=1;jettySize=auto;html=1;" parent="WIyWlLk6GJQsqaUBKTNV-1" source="Cf76I0SgRMBPhJXekZDS-12" target="WIyWlLk6GJQsqaUBKTNV-11" edge="1">
          <mxGeometry relative="1" as="geometry">
            <mxPoint x="160" y="730" as="targetPoint" />
            <Array as="points">
              <mxPoint x="160" y="165" />
              <mxPoint x="160" y="700" />
            </Array>
          </mxGeometry>
        </mxCell>
        <mxCell id="Cf76I0SgRMBPhJXekZDS-12" value="Средняя скорость такси-50км/час" style="rounded=0;whiteSpace=wrap;html=1;" parent="WIyWlLk6GJQsqaUBKTNV-1" vertex="1">
          <mxGeometry x="220" y="135" width="120" height="60" as="geometry" />
        </mxCell>
        <mxCell id="Cf76I0SgRMBPhJXekZDS-13" value="да" style="edgeStyle=orthogonalEdgeStyle;rounded=0;orthogonalLoop=1;jettySize=auto;html=1;" parent="WIyWlLk6GJQsqaUBKTNV-1" edge="1">
          <mxGeometry relative="1" as="geometry">
            <mxPoint x="340" y="275" as="targetPoint" />
            <mxPoint x="440" y="275" as="sourcePoint" />
          </mxGeometry>
        </mxCell>
        <mxCell id="Cf76I0SgRMBPhJXekZDS-27" style="edgeStyle=orthogonalEdgeStyle;rounded=0;orthogonalLoop=1;jettySize=auto;html=1;" parent="WIyWlLk6GJQsqaUBKTNV-1" source="Cf76I0SgRMBPhJXekZDS-14" edge="1">
          <mxGeometry relative="1" as="geometry">
            <mxPoint x="160" y="275" as="targetPoint" />
          </mxGeometry>
        </mxCell>
        <mxCell id="Cf76I0SgRMBPhJXekZDS-14" value="Средняя скорость такси-35км/час" style="rounded=0;whiteSpace=wrap;html=1;" parent="WIyWlLk6GJQsqaUBKTNV-1" vertex="1">
          <mxGeometry x="220" y="245" width="120" height="60" as="geometry" />
        </mxCell>
        <mxCell id="Cf76I0SgRMBPhJXekZDS-15" value="да" style="edgeStyle=orthogonalEdgeStyle;rounded=0;orthogonalLoop=1;jettySize=auto;html=1;" parent="WIyWlLk6GJQsqaUBKTNV-1" edge="1">
          <mxGeometry relative="1" as="geometry">
            <mxPoint x="340" y="385" as="targetPoint" />
            <mxPoint x="440" y="385" as="sourcePoint" />
          </mxGeometry>
        </mxCell>
        <mxCell id="Cf76I0SgRMBPhJXekZDS-28" style="edgeStyle=orthogonalEdgeStyle;rounded=0;orthogonalLoop=1;jettySize=auto;html=1;" parent="WIyWlLk6GJQsqaUBKTNV-1" source="Cf76I0SgRMBPhJXekZDS-16" edge="1">
          <mxGeometry relative="1" as="geometry">
            <mxPoint x="160" y="385" as="targetPoint" />
          </mxGeometry>
        </mxCell>
        <mxCell id="Cf76I0SgRMBPhJXekZDS-16" value="Средняя скорость такси-42км/час" style="rounded=0;whiteSpace=wrap;html=1;" parent="WIyWlLk6GJQsqaUBKTNV-1" vertex="1">
          <mxGeometry x="220" y="355" width="120" height="60" as="geometry" />
        </mxCell>
        <mxCell id="Cf76I0SgRMBPhJXekZDS-17" value="да" style="edgeStyle=orthogonalEdgeStyle;rounded=0;orthogonalLoop=1;jettySize=auto;html=1;" parent="WIyWlLk6GJQsqaUBKTNV-1" edge="1">
          <mxGeometry relative="1" as="geometry">
            <mxPoint x="340" y="495" as="targetPoint" />
            <mxPoint x="440" y="495" as="sourcePoint" />
          </mxGeometry>
        </mxCell>
        <mxCell id="Cf76I0SgRMBPhJXekZDS-29" style="edgeStyle=orthogonalEdgeStyle;rounded=0;orthogonalLoop=1;jettySize=auto;html=1;" parent="WIyWlLk6GJQsqaUBKTNV-1" source="Cf76I0SgRMBPhJXekZDS-18" edge="1">
          <mxGeometry relative="1" as="geometry">
            <mxPoint x="160" y="495" as="targetPoint" />
          </mxGeometry>
        </mxCell>
        <mxCell id="Cf76I0SgRMBPhJXekZDS-18" value="Средняя скорость такси-30км/час" style="rounded=0;whiteSpace=wrap;html=1;" parent="WIyWlLk6GJQsqaUBKTNV-1" vertex="1">
          <mxGeometry x="220" y="465" width="120" height="60" as="geometry" />
        </mxCell>
        <mxCell id="Cf76I0SgRMBPhJXekZDS-19" value="да" style="edgeStyle=orthogonalEdgeStyle;rounded=0;orthogonalLoop=1;jettySize=auto;html=1;" parent="WIyWlLk6GJQsqaUBKTNV-1" edge="1">
          <mxGeometry relative="1" as="geometry">
            <mxPoint x="340" y="605" as="targetPoint" />
            <mxPoint x="440" y="605" as="sourcePoint" />
          </mxGeometry>
        </mxCell>
        <mxCell id="Cf76I0SgRMBPhJXekZDS-30" style="edgeStyle=orthogonalEdgeStyle;rounded=0;orthogonalLoop=1;jettySize=auto;html=1;" parent="WIyWlLk6GJQsqaUBKTNV-1" source="Cf76I0SgRMBPhJXekZDS-20" edge="1">
          <mxGeometry relative="1" as="geometry">
            <mxPoint x="160" y="605" as="targetPoint" />
          </mxGeometry>
        </mxCell>
        <mxCell id="Cf76I0SgRMBPhJXekZDS-20" value="Средняя скорость такси-50км/час" style="rounded=0;whiteSpace=wrap;html=1;" parent="WIyWlLk6GJQsqaUBKTNV-1" vertex="1">
          <mxGeometry x="220" y="575" width="120" height="60" as="geometry" />
        </mxCell>
      </root>
    </mxGraphModel>
  </diagram>
</mxfile>
